Coordinates
version=1
nRows=65
nColumns=12
inDegrees=yes

Units are S.I. units (second, meters, Newtons, ...)
Angles are in degrees

endheader
time	SC_y	SC_z	SC_x	AC_y	AC_z	AC_x	GH_y	GH_z	GH_yy	EL_x	PS_y
       0.0              -15.42          2.929          52.91           62.7         -7.348          7.402          179.9          7.815          16.99          16.53          49.62
   0.04488              -15.43          2.932          52.91           62.7          -7.35          7.403          179.9          7.815          16.99          16.54          49.63
   0.08976              -15.43          2.936          52.92           62.7         -7.351          7.404          179.9          7.816          16.99          16.55          49.63
    0.1346              -15.44           2.94          52.92          62.69         -7.352          7.405          179.9          7.817          16.99          16.57          49.64
    0.1795              -15.44          2.944          52.93          62.69         -7.354          7.406          179.9          7.818          16.99          16.58          49.65
    0.2244              -15.45          2.948          52.93          62.69         -7.355          7.407          179.9          7.818          16.99          16.59          49.66
    0.2693              -15.45          2.953          52.94          62.69         -7.357          7.409          179.9          7.819           17.0           16.6          49.66
    0.3142              -15.46          2.958          52.94          62.69         -7.358           7.41          179.9           7.82           17.0          16.62          49.67
    0.3591              -15.46          2.964          52.95          62.69          -7.36          7.412          179.9          7.821           17.0          16.63          49.68
    0.4039              -15.47           2.97          52.95          62.69         -7.362          7.413          179.9          7.822           17.0          16.65          49.69
    0.4488              -15.48          2.976          52.96          62.69         -7.365          7.415          179.9          7.824           17.0          16.67           49.7
    0.4937              -15.49          2.983          52.97          62.68         -7.367          7.417          179.9          7.825           17.0          16.68          49.72
    0.5386              -15.49           2.99          52.98          62.68         -7.369          7.419          179.9          7.826           17.0           16.7          49.73
    0.5835               -15.5          2.998          52.98          62.68         -7.372          7.421          179.9          7.828           17.0          16.73          49.74
    0.6283              -15.51          3.007          52.99          62.68         -7.375          7.424          179.9          7.829           17.0          16.75          49.76
    0.6732              -15.53          3.016           53.0          62.68         -7.378          7.426          179.9          7.831          17.01          16.78          49.77
    0.7181              -15.54          3.026          53.01          62.67         -7.382          7.429          179.8          7.833          17.01           16.8          49.79
     0.763              -15.55          3.037          53.03          62.67         -7.385          7.432          179.8          7.835          17.01          16.83          49.81
    0.8079              -15.56          3.049          53.04          62.67          -7.39          7.436          179.8          7.837          17.01          16.87          49.83
    0.8527              -15.58          3.062          53.05          62.66         -7.394           7.44          179.8           7.84          17.01           16.9          49.85
    0.8976               -15.6          3.076          53.07          62.66         -7.399          7.444          179.8          7.842          17.02          16.94          49.88
    0.9425              -15.61          3.092          53.09          62.66         -7.404          7.448          179.8          7.845          17.02          16.99          49.91
    0.9874              -15.64           3.11           53.1          62.65          -7.41          7.453          179.8          7.849          17.02          17.03          49.94
     1.032              -15.66          3.129          53.13          62.65         -7.417          7.459          179.8          7.852          17.02          17.09          49.97
     1.077              -15.68          3.151          53.15          62.64         -7.424          7.465          179.8          7.856          17.03          17.15          50.01
     1.122              -15.71          3.175          53.18          62.64         -7.433          7.472          179.8          7.861          17.03          17.21          50.05
     1.167              -15.74          3.202           53.2          62.63         -7.442          7.479          179.8          7.866          17.04          17.29           50.1
     1.212              -15.78          3.232          53.24          62.62         -7.452          7.488          179.7          7.871          17.04          17.37          50.15
     1.257              -15.82          3.267          53.27          62.61         -7.464          7.498          179.7          7.878          17.05          17.47          50.21
     1.302              -15.86          3.306          53.32           62.6         -7.477          7.509          179.7          7.885          17.05          17.57          50.28
     1.346              -15.92           3.35          53.36          62.59         -7.493          7.521          179.7          7.894          17.06           17.7          50.35
     1.391              -15.98          3.401          53.42          62.58          -7.51          7.536          179.7          7.903          17.07          17.84          50.44
     1.436              -16.05           3.46          53.48          62.56          -7.53          7.553          179.6          7.914          17.08           18.0          50.55
     1.481              -16.13          3.528          53.56          62.55         -7.554          7.572          179.6          7.927          17.09          18.19          50.66
     1.526              -16.22          3.608          53.64          62.53         -7.581          7.595          179.6          7.942           17.1          18.41           50.8
     1.571              -16.33          3.703          53.75           62.5         -7.614          7.622          179.5          7.959          17.12          18.67          50.97
     1.616              -16.46          3.815          53.87          62.47         -7.652          7.653          179.5           7.98          17.14          18.98          51.16
     1.661              -16.62          3.949          54.01          62.44         -7.698          7.692          179.4          8.006          17.16          19.35           51.4
     1.705              -16.81          4.112          54.19           62.4         -7.754          7.738          179.3          8.036          17.19           19.8          51.68
      1.75              -17.04          4.311           54.4          62.35         -7.822          7.794          179.2          8.073          17.22          20.35          52.03
     1.795              -17.33          4.556          54.67          62.29         -7.906          7.864          179.1          8.119          17.26          21.02          52.45
      1.84              -17.69          4.862           55.0          62.21         -8.011          7.951          179.0          8.176          17.31          21.87          52.98
     1.885              -18.14          5.247          55.42          62.11         -8.143           8.06          178.8          8.248          17.38          22.93          53.65
      1.93              -18.72          5.737          55.94          61.99         -8.311          8.199          178.5           8.34          17.46          24.28          54.51
     1.975              -19.45          6.364          56.62          61.83         -8.526          8.378          178.2          8.457          17.56          26.01           55.6
      2.02               -20.4          7.169          57.49          61.63         -8.801          8.606          177.9          8.607          17.69          28.23           57.0
     2.065               -21.6          8.196           58.6          61.37         -9.154          8.898          177.4          8.799          17.87          31.06          58.78
     2.109              -23.12          9.489           60.0          61.04         -9.596          9.265          176.7          9.041          18.08          34.63          61.03
     2.154              -24.96          11.06           61.7          60.65         -10.14          9.712          176.0          9.335          18.34          38.97          63.77
     2.199               -27.1          12.89          63.67          60.19         -10.76          10.23          175.1          9.676          18.64          44.01          66.94
     2.244              -29.42          14.86          65.81          59.69         -11.44          10.79          174.1          10.05          18.97          49.46          70.38
     2.289              -31.74          16.84          67.95          59.19         -12.12          11.35          173.2          10.42           19.3          54.91          73.82
     2.334              -33.88          18.67          69.92          58.73         -12.74          11.87          172.3          10.76           19.6          59.94          76.99
     2.379              -35.73          20.24          71.62          58.34         -13.28          12.32          171.6          11.05          19.86          64.29          79.73
     2.424              -37.24          21.53          73.02          58.01         -13.72          12.69          170.9          11.29          20.08          67.85          81.98
     2.468              -38.45          22.56          74.13          57.75         -14.08          12.98          170.4          11.48          20.25          70.68          83.76
     2.513              -39.39          23.37           75.0          57.55         -14.35          13.21          170.1          11.63          20.38           72.9          85.16
     2.558              -40.13          23.99          75.68          57.39         -14.57          13.39          169.8          11.75          20.49          74.63          86.25
     2.603               -40.7          24.48          76.21          57.27         -14.73          13.52          169.5          11.84          20.57          75.98           87.1
     2.648              -41.15          24.87          76.62          57.17         -14.87          13.63          169.3          11.92          20.63          77.05          87.77
     2.693              -41.51          25.17          76.95          57.09         -14.97          13.72          169.2          11.97          20.68          77.89          88.31
     2.738               -41.8          25.42          77.22          57.03         -15.06          13.79          169.1          12.02          20.72          78.57          88.73
     2.783              -42.03          25.62          77.43          56.98         -15.12          13.85          169.0          12.06          20.76          79.11          89.08
     2.828              -42.23          25.78          77.61          56.94         -15.18          13.89          168.9          12.09          20.78          79.56          89.36
     2.872              -42.38          25.91          77.75          56.91         -15.23          13.93          168.8          12.11          20.81          79.93           89.6
